. 
  
http://www.torrentday.com   -    Your Key To The Scene.

Now TvTeam with [No-RAR] Releases.

(((((((((((((= Enjoy No RAR releases =))))))))))))))))))))

...................................NFO:....................................

.
                                                     
                                                   
                                                         
                                                          
                                                           
                                                          
                                                          
                                                          
                                                           
                                                         
                                                          
                                                        
                                                      
                                     
                                                 
                                                   
                                             
                                              
                                                     
                                                      
                                                      
                                                      
                                                    
                                                     
                                                   
                                                     
                                                     
                                                      
                                                     
                                                      
                                                    
                 ARTiCHOKE                        
                                                
                      
                                                        
                                                      
                                                      
                                               
                                          
                                                   
                                            
                                                    
                                                       
                                                        
                                                      
                                                
                                                        
                                                 
                                              
                                                  
                                                
                                                  
                                        

      
                                
      SPRiNTER proudly presents...     
                                
      
 
 Naruto.Shippuden.S01E01.DVDRip.XviD-SPRiNTER  http://www.imdb.com/title/tt0988824/
 Audio: Japanese
 Subtitles: English

 Date: 2010.03

 Director: Hayato Date
 Genre: Animation | Action | Adventure | Sci-Fi | Thriller

 Cast

	Junko Takeuchi	 ...	Naruto Uzumaki (61 episodes, 2007-2009)
	Chie Nakamura	 ...	Sakura Haruno (59 episodes, 2007-2008)
	Kazuhiko Inoue	 ...	Kakashi Hatake / ... (47 episodes, 2007-2009)
	Rikiya Koyama	 ...	Yamato (31 episodes, 2007-2008)
	Satoshi Hino	 ...	Sai (29 episodes, 2007-2008)
	Maile Flanagan	 ...	Naruto Uzumaki (26 episodes, 2007)
	Kate Higgins	 ...	Sakura Haruno / ... (26 episodes, 2007)
	Dave Wittenberg	 ...	Kakashi Hatake (25 episodes, 2007)

      
                 
      Release notes     
                 
      

 The first 15mins or so have thick black bars on top and bottom. We had to keep it because we couldn't remove
 it unless messing up frames and over cropping the rest of the episode.


 Enjoy!


      
           
     Greetings    
           
      


NTX aAF FiCO HNR CiNEFiLE AEN HUMANiSM MOViERUSH


      
           
      Details     
           
      

Format                           : AVI
Format/Info                      : Audio Video Interleave
File size                        : 234 MiB
Duration                         : 23mn 33s
Overall bit rate                 : 1 386 Kbps
Writing application              : VirtualDubMod 1.5.10.2 (build 2540/release)
Writing library                  : VirtualDubMod build 2540/release

Video
ID                               : 0
Format                           : MPEG-4 Visual
Format profile                   : AdvancedSimple@L5
Format settings, BVOP            : Yes
Format settings, QPel            : No
Format settings, GMC             : No warppoints
Format settings, Matrix          : Default (H.263)
Codec ID                         : XVID
Codec ID/Hint                    : XviD
Duration                         : 23mn 33s
Bit rate                         : 1 236 Kbps
Width                            : 544 pixels
Height                           : 400 pixels
Display aspect ratio             : 4:3
Frame rate                       : 23.976 fps
Resolution                       : 24 bits
Colorimetry                      : 4:2:0
Scan type                        : Progressive
Bits/(Pixel*Frame)               : 0.237
Stream size                      : 208 MiB (89%)
Writing library                  : XviD 1.2.1 (UTC 2008-12-04)

Audio
ID                               : 1
Format                           : MPEG Audio
Format version                   : Version 1
Format profile                   : Layer 3
Codec ID                         : 55
Codec ID/Hint                    : MP3
Duration                         : 23mn 33s
Bit rate mode                    : Variable
Bit rate                         : 138 Kbps
Minimum bit rate                 : 128 Kbps
Channel(s)                       : 2 channels
Sampling rate                    : 48.0 KHz
Resolution                       : 16 bits
Stream size                      : 23.2 MiB (10%)
Alignment                        : Aligned on interleaves
Interleave, duration             : 24 ms (0.58 video frame)
Interleave, preload duration     : 133 ms
Writing library                  : LAME3.95 
Encoding settings                : -m j -V 4 -q 3 -lowpass 18 --vbr-old -b 128